<?xml version="1.0" encoding="UTF-8"?>
<svg width="307px" height="56px" viewBox="0 0 307 56" version="1.1" xmlns="http://www.w3.org/2000/svg" xmlns:xlink="http://www.w3.org/1999/xlink">
    <title>Group</title>
    <g id="Page-1" stroke="none" stroke-width="1" fill="none" fill-rule="evenodd">
        <g id="ORKA_LOGO" transform="translate(-267.000000, -270.000000)" fill="#C49A6C">
            <g id="Group" transform="translate(267.444200, 270.268300)">
                <path d="M37.738,26.8218 C37.738,17.1988 30.818,9.7918 21.519,9.7918 C12.381,9.7918 5.406,17.2528 5.406,26.9308 C5.406,36.3378 12.381,44.0148 21.626,44.0148 C30.98,44.0148 37.738,36.5008 37.738,26.8768 L37.738,26.8218 Z M43.091,26.6598 C43.091,38.7708 34.061,48.6108 21.356,48.6108 C9.353,48.6108 0,38.9878 0,27.1468 C0,14.6568 9.462,5.2498 22.113,5.2498 C34.224,5.2498 43.091,14.4958 43.091,26.6058 L43.091,26.6598 Z" id="Fill-1"></path>
                <path d="M75.2096,17.5768 C75.2096,12.7648 71.6956,10.0068 66.5056,10.0068 C65.5856,10.0068 64.5046,10.0618 64.0716,10.1158 L64.0716,26.1198 C64.4496,26.1738 65.0996,26.1738 65.8016,26.1738 C67.5326,26.1738 69.3166,25.7948 70.6686,25.0918 C72.8846,24.0108 75.2096,21.7938 75.2096,17.6308 L75.2096,17.5768 Z M59.2056,23.1998 C59.2056,8.5478 59.2056,6.3848 58.5576,6.1688 L58.5576,5.8988 C59.3686,5.8448 60.3416,5.7898 61.5316,5.7898 C62.7746,5.7358 64.6126,5.6288 65.6396,5.6288 C68.3426,5.6288 70.9386,5.8988 73.2626,6.7638 C75.9126,7.6828 80.3456,10.6558 80.3456,17.3068 C80.3456,22.9838 77.1026,26.0648 74.8856,27.4708 C73.8036,28.2278 72.3986,28.9308 71.2626,29.2548 L71.2626,29.3638 C71.8576,30.1738 72.6686,31.2548 81.9676,43.5288 C83.3196,45.2048 85.1036,47.3678 85.6976,47.6918 L85.6976,47.9618 L82.6166,47.9618 L80.3996,47.9618 C79.9676,47.9618 79.4806,47.9078 79.0486,47.7458 C75.8036,43.2588 72.0196,38.0138 66.1806,30.1208 L64.0716,30.1208 L64.0716,31.7418 C64.0716,45.2048 64.0716,47.3678 64.7206,47.6918 L64.7206,47.9618 L61.6926,47.9618 L58.5576,47.9618 L58.5576,47.6918 C59.2056,47.3678 59.2056,45.2048 59.2056,29.5248 L59.2056,23.1998 Z" id="Fill-3"></path>
                <path d="M99.3783,23.1999 C99.3783,9.1969 99.3783,6.8179 98.6753,6.1689 L98.6753,5.7899 L101.9203,5.7899 L105.1093,5.7899 L105.1093,6.0599 C104.4613,6.7099 104.4073,9.2499 104.4073,22.0639 L104.4073,24.8759 L104.5143,24.8759 L113.5443,13.8459 C118.2483,8.1149 119.4373,6.4389 119.1663,6.0069 L119.1663,5.7899 L122.6813,5.7899 L126.1413,5.7899 L126.1413,6.0599 C125.3843,6.3849 123.7083,8.6019 118.9503,14.2239 L109.1643,25.8489 L118.2483,36.7169 C125.4383,45.3129 127.0603,47.2049 127.9793,47.6919 L127.9793,47.9619 L124.1953,47.9619 L120.4643,47.9619 L120.4643,47.7459 C120.8423,47.4219 119.0053,45.2049 112.2463,37.0409 L104.5143,27.6869 L104.4073,27.6869 L104.4073,30.8769 C104.4073,45.2049 104.4613,46.9889 105.1643,47.6919 L105.1643,47.9619 L102.0273,47.9619 L98.6753,47.9619 L98.6753,47.6379 C99.3783,46.9349 99.3783,45.2049 99.3783,29.5249 L99.3783,23.1999 Z" id="Fill-5"></path>
                <path d="M163.7742,36.0677 C167.3972,45.2047 168.2622,47.3677 167.6672,47.6917 L167.6672,47.9617 L174.3702,47.9617 L174.3702,47.6917 C173.7772,47.3677 172.9112,45.2047 166.5862,29.4717 L156.7992,5.0877 L156.0962,5.0877 L146.0402,29.4177 C139.4982,45.2047 138.4712,47.4217 137.8762,47.6917 L137.8762,47.9617 L144.2562,47.9617 L144.2562,47.6917 C143.6622,47.3677 144.5802,45.2047 148.3112,36.0677 L149.9332,31.9047 L149.9872,31.6877 C154.7992,19.4697 155.5552,17.5767 156.1512,15.7387 L156.2582,15.7387 C156.7992,17.5767 157.5022,19.4697 162.1522,31.6877 L162.2062,31.9047" id="Fill-7"></path>
                <path d="M216.9313,26.8326 C216.9313,21.3466 221.1053,18.0906 226.3073,18.0906 C227.1823,18.0906 227.8813,18.1336 228.5803,18.2436 C229.1923,18.3306 229.7823,18.4396 230.3073,18.5716 C230.2413,19.5546 230.2193,20.1006 230.1983,20.8226 L230.0883,20.8226 C229.8913,20.5816 229.5643,20.4066 229.1483,20.2756 C228.4933,20.0796 227.5093,19.9266 226.4603,19.9266 C222.1333,19.9266 219.1383,22.5706 219.1383,26.8766 C219.1383,31.0506 222.0013,33.8266 226.0233,33.8266 C226.9413,33.8266 227.7283,33.7386 228.4053,33.5426 C228.4273,33.1486 228.4273,32.7116 228.4273,32.4276 C228.4273,29.0836 228.4053,27.8376 228.1213,27.6856 L228.1213,27.5756 L229.3893,27.5756 L230.6783,27.5756 L230.6783,27.6856 C230.4383,27.8376 230.4383,28.3626 230.4383,31.9686 L230.4383,32.7996 C230.4383,33.6516 230.4383,34.5256 230.4603,34.9846 C229.0833,35.4436 227.6843,35.6406 225.9363,35.6406 C220.8213,35.6406 216.9313,32.3406 216.9313,26.8546 L216.9313,26.8326 Z" id="Fill-9"></path>
                <path d="M244.3393,23.1172 C244.3393,21.1722 242.9183,20.0572 240.8203,20.0572 C240.4493,20.0572 240.0113,20.0792 239.8363,20.1012 L239.8363,26.5702 C239.9903,26.5922 240.2523,26.5922 240.5363,26.5922 C241.2353,26.5922 241.9573,26.4392 242.5033,26.1552 C243.3993,25.7182 244.3393,24.8222 244.3393,23.1392 L244.3393,23.1172 Z M237.8703,25.3902 C237.8703,19.4672 237.8703,18.5932 237.6073,18.5052 L237.6073,18.3962 C237.9353,18.3742 238.3283,18.3522 238.8103,18.3522 C239.3123,18.3312 240.0563,18.2872 240.4703,18.2872 C241.5643,18.2872 242.6123,18.3962 243.5523,18.7462 C244.6233,19.1172 246.4153,20.3192 246.4153,23.0082 C246.4153,25.3032 245.1043,26.5482 244.2083,27.1172 C243.7713,27.4232 243.2023,27.7072 242.7443,27.8382 L242.7443,27.8822 C242.9843,28.2092 243.3123,28.6462 247.0713,33.6082 C247.6173,34.2862 248.3393,35.1602 248.5793,35.2912 L248.5793,35.4002 L247.3333,35.4002 L246.4383,35.4002 C246.2633,35.4002 246.0663,35.3782 245.8913,35.3132 C244.5803,33.4992 243.0493,31.3792 240.6893,28.1882 L239.8363,28.1882 L239.8363,28.8432 C239.8363,34.2862 239.8363,35.1602 240.0993,35.2912 L240.0993,35.4002 L238.8753,35.4002 L237.6073,35.4002 L237.6073,35.2912 C237.8703,35.1602 237.8703,34.2862 237.8703,27.9472 L237.8703,25.3902 Z" id="Fill-11"></path>
                <path d="M268.0979,26.8544 C268.0979,22.9644 265.2999,19.9704 261.5409,19.9704 C257.8469,19.9704 255.0279,22.9864 255.0279,26.8984 C255.0279,30.7014 257.8469,33.8044 261.5849,33.8044 C265.3659,33.8044 268.0979,30.7674 268.0979,26.8764 L268.0979,26.8544 Z M270.2619,26.7894 C270.2619,31.6844 266.6119,35.6624 261.4749,35.6624 C256.6239,35.6624 252.8429,31.7724 252.8429,26.9854 C252.8429,21.9364 256.6669,18.1344 261.7819,18.1344 C266.6779,18.1344 270.2619,21.8714 270.2619,26.7674 L270.2619,26.7894 Z" id="Fill-13"></path>
                <path d="M276.7105,25.3903 C276.7105,19.4673 276.7105,18.5933 276.4475,18.4613 L276.4475,18.3523 L277.7375,18.3523 L279.0485,18.3523 L279.0485,18.4613 C278.7645,18.5933 278.7645,19.4673 278.7645,25.3903 L278.7645,28.1003 C278.7645,29.9363 279.0265,31.1603 279.6605,32.0783 C280.3825,33.1713 281.7805,33.7613 283.1575,33.7613 C284.6215,33.7613 285.8675,33.3023 286.6985,32.2313 C287.4195,31.2913 287.7255,29.9143 287.7255,27.9473 L287.7255,25.3903 C287.7255,19.4893 287.7255,18.5933 287.4415,18.4613 L287.4415,18.3523 L288.7095,18.3523 L289.9775,18.3523 L289.9775,18.4613 C289.7145,18.5933 289.7145,19.4893 289.7145,25.3903 L289.7145,28.0133 C289.7145,30.4173 289.2775,32.0563 288.2945,33.3243 C287.2885,34.7013 285.4305,35.6623 283.1365,35.6623 C280.8195,35.6623 278.9175,34.7663 277.8465,33.0833 C277.0385,31.9033 276.7105,30.5263 276.7105,28.2093 L276.7105,25.3903 Z" id="Fill-15"></path>
                <path d="M304.2057,23.467 C304.2057,22.112 303.5287,21.019 302.3697,20.473 C301.8237,20.21 300.9937,20.079 300.1627,20.079 C299.8997,20.079 299.5067,20.101 299.2227,20.123 L299.2227,27.139 C299.4197,27.139 299.8127,27.161 300.0747,27.139 C300.7967,27.139 301.4957,27.029 302.0647,26.811 C302.5887,26.592 303.1567,26.177 303.5067,25.74 C303.9437,25.15 304.2057,24.472 304.2057,23.489 L304.2057,23.467 Z M297.2557,25.39 C297.2557,19.467 297.2557,18.79 296.9937,18.527 L296.9937,18.418 C297.3867,18.375 297.9767,18.352 298.5667,18.331 C299.1787,18.331 299.9447,18.309 300.4247,18.331 C301.4307,18.352 302.5667,18.527 303.3757,18.899 C305.0367,19.598 306.2817,21.15 306.2817,23.489 C306.2817,24.428 306.0417,25.325 305.6927,25.98 C305.3427,26.68 304.7967,27.27 304.2277,27.663 C303.6157,28.122 302.8507,28.472 302.0197,28.669 C301.1677,28.887 300.1847,28.909 299.2227,28.909 L299.2227,29.499 C299.2227,34.286 299.2227,35.029 299.5067,35.291 L299.5067,35.4 L298.2167,35.4 L296.9937,35.4 L296.9937,35.291 C297.2557,35.007 297.2557,34.286 297.2557,27.947 L297.2557,25.39 Z" id="Fill-17"></path>
                <polygon id="Fill-19" points="205.866 55.513 184.022 0 182.198 0 204.041 55.513"></polygon>
            </g>
        </g>
    </g>
</svg>